<?xml version="1.0" standalone="no"?>
<!DOCTYPE svg PUBLIC "-//W3C//DTD SVG 20010904//EN"
 "http://www.w3.org/TR/2001/REC-SVG-20010904/DTD/svg10.dtd">
<svg version="1.0" xmlns="http://www.w3.org/2000/svg"
 width="200.000000pt" height="200.000000pt" viewBox="0 0 200.000000 200.000000"
 preserveAspectRatio="xMidYMid meet">

<g transform="translate(0.000000,200.000000) scale(0.100000,-0.100000)"
fill="#000000" stroke="none">
<path d="M1080 1904 c-195 -46 -512 -120 -705 -165 -192 -45 -356 -84 -362
-86 -7 -3 -13 -19 -13 -36 0 -37 389 -1588 402 -1602 12 -13 309 63 324 83 7
10 19 13 34 9 15 -4 195 35 459 99 340 82 439 109 449 124 11 15 18 17 36 9
17 -8 45 -5 117 15 52 13 113 30 137 36 40 10 42 12 42 49 0 22 -51 185 -123
397 -68 197 -184 538 -258 756 -129 384 -135 398 -159 397 -14 -1 -185 -39
-380 -85z m618 -671 c134 -395 243 -722 243 -728 -1 -16 -212 -65 -232 -54
-27 14 -38 11 -63 -14 -20 -20 -95 -41 -432 -123 -254 -61 -425 -97 -450 -96
-29 2 -47 -3 -59 -15 -10 -9 -74 -31 -144 -49 -114 -29 -127 -30 -134 -15 -8
18 -367 1436 -370 1465 -2 16 70 35 693 181 382 90 697 163 700 164 3 1 115
-322 248 -716z"/>
<path d="M1400 1891 c0 -27 19 -36 37 -18 18 18 9 37 -18 37 -12 0 -19 -7 -19
-19z"/>
<path d="M1145 1850 c-106 -28 -142 -48 -131 -76 3 -8 -58 -27 -182 -57 -265
-64 -259 -64 -287 -37 l-23 22 -138 -34 -139 -34 -48 -59 c-48 -59 -49 -61
-43 -115 3 -30 11 -73 19 -95 13 -38 16 -40 59 -43 l45 -3 13 -57 c7 -31 15
-62 17 -69 2 -6 -8 -17 -23 -25 -51 -25 -52 -33 -4 -225 27 -106 52 -185 63
-195 9 -10 32 -18 51 -18 l34 0 27 -100 c15 -56 26 -102 24 -103 -2 -1 -17 -9
-34 -18 -29 -14 -30 -18 -30 -80 1 -91 17 -117 100 -161 39 -21 81 -37 95 -37
35 -1 290 65 302 77 6 6 11 22 11 36 0 24 6 26 241 84 l241 60 22 -24 c26 -29
27 -28 207 17 123 30 137 41 188 140 25 50 26 53 11 103 -26 89 -43 111 -89
112 l-39 0 -27 80 c-34 101 -34 110 0 126 42 21 39 56 -21 229 -70 201 -68
197 -118 201 l-41 3 -20 65 c-14 43 -16 66 -9 68 6 2 20 11 32 21 l22 17 -23
70 c-28 86 -40 100 -115 135 -73 35 -100 35 -240 -1z m226 -40 c63 -32 94 -74
67 -92 -19 -11 -32 -10 -64 7 -66 34 -89 31 -564 -79 -286 -67 -464 -112 -480
-124 -14 -10 -33 -34 -42 -53 -24 -46 -75 -59 -89 -22 -14 37 -12 42 30 98
l39 51 121 28 122 29 20 -22 c11 -11 24 -21 29 -21 12 0 337 76 415 97 70 19
83 27 87 56 3 18 19 25 108 48 58 15 113 28 123 28 10 1 45 -13 78 -29z m-26
-114 c18 -8 38 -23 43 -33 24 -45 252 -768 252 -798 0 -24 -9 -44 -27 -65 -26
-28 -54 -36 -463 -136 -242 -59 -467 -108 -506 -111 -68 -5 -72 -4 -102 23
-30 27 -38 52 -132 414 -55 212 -100 400 -100 419 0 24 9 42 33 66 27 27 49
36 127 54 52 12 246 57 430 100 184 43 352 79 373 80 21 0 53 -5 72 -13z m125
-25 c0 -5 -7 -12 -16 -15 -22 -9 -24 -8 -24 9 0 8 9 15 20 15 11 0 20 -4 20
-9z m95 -273 c7 -18 29 -80 49 -138 35 -98 36 -105 20 -117 -10 -7 -20 -13
-24 -13 -5 0 -100 277 -100 293 0 4 9 7 21 7 13 0 25 -11 34 -32z m-1295 -18
c0 -5 -4 -10 -9 -10 -5 0 -16 -3 -25 -6 -11 -4 -16 -1 -16 10 0 10 9 16 25 16
14 0 25 -4 25 -10z m60 -245 c0 -3 16 -67 36 -142 20 -76 37 -142 38 -147 2
-13 -32 -15 -43 -3 -5 7 -25 72 -44 145 -32 120 -34 133 -19 142 19 10 32 13
32 5z m1340 -39 c0 -14 -40 -30 -50 -20 -5 6 29 34 42 34 4 0 8 -6 8 -14z
m-1257 -311 c-4 -15 -36 -12 -41 3 -3 9 3 13 19 10 13 -1 23 -7 22 -13z m1361
-27 c8 -32 5 -43 -25 -95 l-35 -58 -129 -32 c-129 -33 -130 -33 -144 -13 -20
30 -58 26 -304 -35 -270 -67 -269 -67 -265 -103 3 -27 2 -27 -132 -61 l-134
-35 -66 35 c-52 28 -67 42 -76 70 -11 33 -11 35 20 49 28 15 33 14 61 -2 55
-33 116 -24 600 93 488 118 509 125 535 188 8 20 20 31 38 34 42 6 46 3 56
-35z m-159 -18 c-15 -15 -136 -48 -470 -129 -487 -117 -508 -122 -545 -110
-20 5 -14 7 24 8 59 1 952 216 981 236 29 20 33 18 10 -5z m128 -166 c-7 -20
-34 -30 -160 -60 -111 -26 -132 -29 -118 -15 6 4 62 20 126 35 64 15 125 33
135 41 24 18 25 18 17 -1z m-578 -100 c-223 -56 -269 -65 -254 -49 10 10 485
123 494 117 5 -3 -103 -34 -240 -68z m-624 -155 l62 -32 134 33 c73 18 136 30
139 27 9 -8 -209 -68 -255 -69 -24 -1 -151 56 -151 67 0 9 8 6 71 -26z"/>
<path d="M1214 1287 c-3 -8 2 -42 11 -76 19 -73 10 -101 -34 -101 -32 0 -42
17 -61 103 -10 43 -17 57 -31 57 -27 0 -29 -11 -12 -84 20 -88 47 -121 101
-121 83 0 107 56 78 180 -11 50 -40 73 -52 42z"/>
<path d="M904 1229 c-32 -8 -41 -14 -38 -27 2 -9 10 -44 18 -77 8 -33 17 -72
20 -87 5 -21 12 -28 31 -28 21 0 23 3 18 34 -5 31 -3 33 28 40 18 3 41 14 51
23 27 24 23 78 -7 108 -26 27 -51 29 -121 14z m84 -41 c17 -17 15 -55 -4 -62
-26 -10 -54 -7 -54 7 0 6 -3 22 -6 34 -4 15 -1 22 13 26 31 8 39 7 51 -5z"/>
<path d="M715 1191 c-99 -43 -84 -197 21 -217 58 -11 144 40 116 68 -9 9 -19
8 -41 -5 -49 -29 -88 -22 -110 20 -27 52 7 96 70 92 43 -4 70 14 52 32 -14 14
-83 21 -108 10z"/>
<path d="M103 1594 c-9 -23 13 -40 32 -24 12 10 13 16 4 26 -15 18 -28 18 -36
-2z"/>
<path d="M1840 530 c0 -16 5 -21 23 -18 12 2 22 10 22 18 0 8 -10 16 -22 18
-18 3 -23 -2 -23 -18z"/>
<path d="M464 195 c-4 -9 -2 -21 4 -27 15 -15 44 -1 40 19 -4 23 -36 29 -44 8z"/>
</g>
</svg>
